<svg xmlns="http://www.w3.org/2000/svg" version="1.1" xmlns:xlink="http://www.w3.org/1999/xlink" xmlns:svgjs="http://svgjs.com/svgjs" width="512" height="512" x="0" y="0" viewBox="0 0 32 32" style="enable-background:new 0 0 512 512" xml:space="preserve" class=""><g><g fill="#011839"><path d="M9 27h6a1 1 0 0 0 0-2H9a1 1 0 0 0 0 2zM9 23h1a1 1 0 0 0 0-2H9a1 1 0 0 0 0 2z" fill="#011839" data-original="#011839" class=""></path><path d="M23 23a1 1 0 0 0-1 1v4.5a.5.5 0 0 1-.5.5h-15a.5.5 0 0 1-.5-.5V9.18l3.09.52a2.83 2.83 0 0 0 .41 0 2.54 2.54 0 0 0 1.62-.59A2.5 2.5 0 0 0 12 7.23V3h9.5a.5.5 0 0 1 .5.5 1 1 0 0 0 2 0A2.5 2.5 0 0 0 21.5 1H11a1 1 0 0 0-.71.29l-6 6A1 1 0 0 0 4 8v20.5A2.5 2.5 0 0 0 6.5 31h15a2.5 2.5 0 0 0 2.5-2.5V24a1 1 0 0 0-1-1zM9.82 7.61a.45.45 0 0 1-.4.11l-2.34-.39L10 4.41v2.82a.49.49 0 0 1-.18.38z" fill="#011839" data-original="#011839" class=""></path></g><path fill="#7738c8" d="M27.8 17.47 23.35 6.9a3.09 3.09 0 0 0-5.7 0L13.2 17.47A2.54 2.54 0 0 0 15.55 21h9.9a2.54 2.54 0 0 0 2.35-3.53zM20.5 19a1 1 0 0 1-1-1v-.5a1 1 0 0 1 1-1 1 1 0 0 1 1 1v.5a1 1 0 0 1-1 1zm0-3.84a1 1 0 0 1-1-1v-4a1 1 0 0 1 1-1 1 1 0 0 1 1 1v4a1 1 0 0 1-1 1z" data-original="#7738c8"></path></g></svg>