<?xml version="1.0" standalone="no"?>
<!DOCTYPE svg PUBLIC "-//W3C//DTD SVG 20010904//EN"
 "http://www.w3.org/TR/2001/REC-SVG-20010904/DTD/svg10.dtd">
<svg version="1.0" xmlns="http://www.w3.org/2000/svg"
 width="347.000000pt" height="190.000000pt" viewBox="0 0 347.000000 190.000000"
 preserveAspectRatio="xMidYMid meet">

<g transform="translate(0.000000,190.000000) scale(0.100000,-0.100000)"
fill="#000000" stroke="none">
<path d="M2072 1210 c0 -19 2 -27 5 -17 2 9 2 25 0 35 -3 9 -5 1 -5 -18z"/>
<path d="M1823 1195 c-23 -37 -17 -48 9 -17 18 20 30 52 20 52 -4 -1 -17 -16
-29 -35z"/>
<path d="M1765 1150 c-3 -6 1 -7 9 -4 18 7 21 14 7 14 -6 0 -13 -4 -16 -10z"/>
<path d="M2003 1045 c0 -11 4 -12 14 -4 7 6 13 13 13 15 0 2 -6 4 -13 4 -8 0
-14 -7 -14 -15z"/>
<path d="M1950 979 c0 -5 -4 -8 -9 -5 -5 4 -8 -1 -7 -10 2 -15 23 -34 39 -34
4 0 7 14 7 30 0 20 -5 30 -15 30 -8 0 -15 -5 -15 -11z"/>
</g>
</svg>
