<svg xmlns="http://www.w3.org/2000/svg" version="1.1" xmlns:xlink="http://www.w3.org/1999/xlink" xmlns:svgjs="http://svgjs.com/svgjs" width="512" height="512" x="0" y="0" viewBox="0 0 512 512" style="enable-background:new 0 0 512 512" xml:space="preserve"><g><path fill="#ededed" d="M463.6 141.4v308.9c0 34.1-27.6 61.7-61.7 61.7H157.1c-34.1 0-61.7-27.6-61.7-61.7V61.7C95.3 27.6 123 0 157.1 0h165.1z" data-original="#ededed"></path><path fill="#84bd5a" d="M463.6 141.4H347.7c-14.1 0-25.5-11.4-25.5-25.5V0zM86.2 210.7h306.3c20.9 0 37.8 16.9 37.8 37.8v92c0 20.9-16.9 37.8-37.8 37.8H86.2c-20.9 0-37.8-16.9-37.8-37.8v-92c0-20.9 16.9-37.8 37.8-37.8z" data-original="#84bd5a"></path><g fill="#fff"><path d="M181.2 324.3h-26.8l-4.6 20.5h-15.4l25.5-101.5h15.8l25.5 101.5H186zm-3-13.6-6.4-27.3c-1.5-6.7-3-16.4-3.8-21.8h-.4c-.7 5.4-2.2 15.1-3.8 21.8l-6.2 27.3zM270.5 276c0 21.3-11.3 33.1-31.2 33.1h-12.2v35.7h-14.6V243.2h26.8c19.9 0 31.2 12.1 31.2 32.8zm-15 0c0-12.5-5.4-18.9-16.4-18.9h-12v38h12c11.1.1 16.4-6 16.4-19.1zM304.1 300.4l-6.7 10v34.4H283V243.2h14.5v44.1l6.7-11.9 20.3-32.2h17.1l-29 44.2 33.2 57.3H329z" fill="#ffffff" data-original="#ffffff"></path></g></g></svg>