<svg xmlns="http://www.w3.org/2000/svg" version="1.1" xmlns:xlink="http://www.w3.org/1999/xlink" xmlns:svgjs="http://svgjs.com/svgjs" width="512" height="512" x="0" y="0" viewBox="0 0 60 60" style="enable-background:new 0 0 512 512" xml:space="preserve"><g><path fill="#5aa064" d="M6 51a3 3 0 0 0 3 3h4v-7H8s-2 0-2 4z" data-original="#5aa064"></path><path fill="#e8ecef" d="M54 12v43a4 4 0 0 1-4 4H16a4 4 0 0 1-4-4V5a4 4 0 0 1 4-4h27z" data-original="#e8ecef"></path><path fill="#c7d0dd" d="M54 12H44c-.55 0-1-.45-1-1V1z" data-original="#c7d0dd"></path><path fill="#61c161" d="M9 48h36a3 3 0 0 0 3-3V31a3 3 0 0 0-3-3H9a3 3 0 0 0-3 3v20a3 3 0 0 1 3-3z" data-original="#61c161"></path><g fill="#fff"><path d="M40.287 32.042a1 1 0 0 0-1.245.671L37 39.52l-2.042-6.807a1.001 1.001 0 0 0-1.916.574l3 10a1.001 1.001 0 0 0 1.916 0l3-10a1.001 1.001 0 0 0-.671-1.245zM17 34c1.103 0 2 .897 2 2a1 1 0 1 0 2 0c0-2.206-1.794-4-4-4s-4 1.794-4 4v4c0 2.206 1.794 4 4 4s4-1.794 4-4a1 1 0 1 0-2 0c0 1.103-.897 2-2 2s-2-.897-2-2v-4c0-1.103.897-2 2-2zM27.242 37.03C25.505 36.595 25 36.342 25 35.5c0-.813.916-1.5 2-1.5 1.415 0 2.09 1.105 2.13 1.174a1 1 0 0 0 1.744-.978c-.05-.09-1.248-2.195-3.874-2.195-2.206 0-4 1.57-4 3.5 0 2.531 2.261 3.096 3.758 3.47 1.737.435 2.242.688 2.242 1.53 0 .813-.916 1.5-2 1.5-1.428 0-2.103-1.127-2.126-1.166a.999.999 0 1 0-1.748.97C23.176 41.895 24.374 44 27 44c2.206 0 4-1.57 4-3.5 0-2.531-2.261-3.096-3.758-3.47z" fill="#ffffff" data-original="#ffffff"></path></g></g></svg>